<svg id="visual" viewBox="0 0 900 600" width="900" height="600" xmlns="http://www.w3.org/2000/svg" xmlns:xlink="http://www.w3.org/1999/xlink" version="1.1"><rect x="0" y="0" width="900" height="600" fill="#f0f0f0"></rect><defs><linearGradient id="grad1_0" x1="33.3%" y1="0%" x2="100%" y2="100%"><stop offset="20%" stop-color="#fbae3c" stop-opacity="1"></stop><stop offset="80%" stop-color="#fbae3c" stop-opacity="1"></stop></linearGradient></defs><defs><linearGradient id="grad1_1" x1="33.3%" y1="0%" x2="100%" y2="100%"><stop offset="20%" stop-color="#fbae3c" stop-opacity="1"></stop><stop offset="80%" stop-color="#fdbe6c" stop-opacity="1"></stop></linearGradient></defs><defs><linearGradient id="grad1_2" x1="33.3%" y1="0%" x2="100%" y2="100%"><stop offset="20%" stop-color="#fdce98" stop-opacity="1"></stop><stop offset="80%" stop-color="#fdbe6c" stop-opacity="1"></stop></linearGradient></defs><defs><linearGradient id="grad1_3" x1="33.3%" y1="0%" x2="100%" y2="100%"><stop offset="20%" stop-color="#fdce98" stop-opacity="1"></stop><stop offset="80%" stop-color="#f9dfc4" stop-opacity="1"></stop></linearGradient></defs><defs><linearGradient id="grad1_4" x1="33.3%" y1="0%" x2="100%" y2="100%"><stop offset="20%" stop-color="#f0f0f0" stop-opacity="1"></stop><stop offset="80%" stop-color="#f9dfc4" stop-opacity="1"></stop></linearGradient></defs><defs><linearGradient id="grad2_0" x1="0%" y1="0%" x2="66.7%" y2="100%"><stop offset="20%" stop-color="#fbae3c" stop-opacity="1"></stop><stop offset="80%" stop-color="#fbae3c" stop-opacity="1"></stop></linearGradient></defs><defs><linearGradient id="grad2_1" x1="0%" y1="0%" x2="66.7%" y2="100%"><stop offset="20%" stop-color="#fdbe6c" stop-opacity="1"></stop><stop offset="80%" stop-color="#fbae3c" stop-opacity="1"></stop></linearGradient></defs><defs><linearGradient id="grad2_2" x1="0%" y1="0%" x2="66.7%" y2="100%"><stop offset="20%" stop-color="#fdbe6c" stop-opacity="1"></stop><stop offset="80%" stop-color="#fdce98" stop-opacity="1"></stop></linearGradient></defs><defs><linearGradient id="grad2_3" x1="0%" y1="0%" x2="66.7%" y2="100%"><stop offset="20%" stop-color="#f9dfc4" stop-opacity="1"></stop><stop offset="80%" stop-color="#fdce98" stop-opacity="1"></stop></linearGradient></defs><defs><linearGradient id="grad2_4" x1="0%" y1="0%" x2="66.7%" y2="100%"><stop offset="20%" stop-color="#f9dfc4" stop-opacity="1"></stop><stop offset="80%" stop-color="#f0f0f0" stop-opacity="1"></stop></linearGradient></defs><g transform="translate(900, 0)"><path d="M0 486.7C-68.1 484.7 -136.2 482.7 -186.3 449.7C-236.3 416.7 -268.3 352.9 -302.6 302.6C-337 252.4 -373.6 215.8 -404.7 167.6C-435.7 119.4 -461.2 59.7 -486.7 0L0 0Z" fill="#f5e8da"></path><path d="M0 389.4C-54.5 387.8 -109 386.1 -149 359.8C-189.1 333.4 -214.7 282.3 -242.1 242.1C-269.6 201.9 -298.9 172.6 -323.7 134.1C-348.6 95.6 -369 47.8 -389.4 0L0 0Z" fill="#fbd7ae"></path><path d="M0 292C-40.9 290.8 -81.7 289.6 -111.8 269.8C-141.8 250 -161 211.7 -181.6 181.6C-202.2 151.4 -224.2 129.5 -242.8 100.6C-261.4 71.7 -276.7 35.8 -292 0L0 0Z" fill="#fec682"></path><path d="M0 194.7C-27.2 193.9 -54.5 193.1 -74.5 179.9C-94.5 166.7 -107.3 141.2 -121.1 121.1C-134.8 101 -149.4 86.3 -161.9 67C-174.3 47.8 -184.5 23.9 -194.7 0L0 0Z" fill="#fdb655"></path><path d="M0 97.3C-13.6 96.9 -27.2 96.5 -37.3 89.9C-47.3 83.3 -53.7 70.6 -60.5 60.5C-67.4 50.5 -74.7 43.2 -80.9 33.5C-87.1 23.9 -92.2 11.9 -97.3 0L0 0Z" fill="#fbae3c"></path></g><g transform="translate(0, 600)"><path d="M0 -486.7C48.7 -444.6 97.4 -402.4 159.6 -385.3C221.8 -368.1 297.4 -375.9 344.2 -344.2C390.9 -312.4 408.8 -241.1 427.8 -177.2C446.7 -113.2 466.7 -56.6 486.7 0L0 0Z" fill="#f5e8da"></path><path d="M0 -389.4C39 -355.7 77.9 -321.9 127.7 -308.2C177.4 -294.5 237.9 -300.7 275.3 -275.3C312.8 -250 327 -192.9 342.2 -141.7C357.4 -90.6 373.4 -45.3 389.4 0L0 0Z" fill="#fbd7ae"></path><path d="M0 -292C29.2 -266.8 58.4 -241.5 95.7 -231.2C133.1 -220.9 178.5 -225.6 206.5 -206.5C234.6 -187.5 245.3 -144.7 256.7 -106.3C268 -67.9 280 -34 292 0L0 0Z" fill="#fec682"></path><path d="M0 -194.7C19.5 -177.8 39 -161 63.8 -154.1C88.7 -147.2 119 -150.4 137.7 -137.7C156.4 -125 163.5 -96.5 171.1 -70.9C178.7 -45.3 186.7 -22.6 194.7 0L0 0Z" fill="#fdb655"></path><path d="M0 -97.3C9.7 -88.9 19.5 -80.5 31.9 -77.1C44.4 -73.6 59.5 -75.2 68.8 -68.8C78.2 -62.5 81.8 -48.2 85.6 -35.4C89.3 -22.6 93.3 -11.3 97.3 0L0 0Z" fill="#fbae3c"></path></g></svg>