<svg id="visual" viewBox="0 0 900 600" width="900" height="600" xmlns="http://www.w3.org/2000/svg" xmlns:xlink="http://www.w3.org/1999/xlink" version="1.1"><rect x="0" y="0" width="900" height="600" fill="#ffffff"></rect><defs><linearGradient id="grad1_0" x1="33.3%" y1="0%" x2="100%" y2="100%"><stop offset="20%" stop-color="#ffffff" stop-opacity="1"></stop><stop offset="80%" stop-color="#ffffff" stop-opacity="1"></stop></linearGradient></defs><defs><linearGradient id="grad2_0" x1="0%" y1="0%" x2="66.7%" y2="100%"><stop offset="20%" stop-color="#ffffff" stop-opacity="1"></stop><stop offset="80%" stop-color="#ffffff" stop-opacity="1"></stop></linearGradient></defs><g transform="translate(900, 0)"><path d="M0 324.5C-37.3 309 -74.6 293.6 -116.3 280.9C-158.1 268.1 -204.4 258.1 -229.5 229.5C-254.5 200.8 -258.4 153.5 -270.7 112.1C-283 70.8 -303.8 35.4 -324.5 0L0 0Z" fill="#0066FF"></path></g><g transform="translate(0, 600)"><path d="M0 -324.5C43.5 -318.7 86.9 -312.9 121.7 -293.8C156.5 -274.7 182.5 -242.4 213.5 -213.5C244.6 -184.7 280.5 -159.2 299.8 -124.2C319.1 -89.2 321.8 -44.6 324.5 0L0 0Z" fill="#0066FF"></path></g></svg>