<svg width="1280" height="720" viewBox="0 0 1280 720" fill="none" xmlns="http://www.w3.org/2000/svg">
<rect width="1280" height="720" fill="white"/>
<path d="M0 424.529L15.2 438.776C30.4889 453.023 61.3333 481.517 91.5556 495.764C121.867 510.011 152 510.011 183.111 476.798C213.333 443.228 243.556 377.335 274.667 348.573C304.8 320.346 335.111 329.251 365.333 324.798C396.178 320.346 426.667 300.756 456.889 315.271C487.644 329.251 518.222 377.335 548.444 415.001C579.022 453.023 609.778 481.517 640 491.045C670.489 500.217 701.333 491.312 731.556 471.989C761.867 453.023 792 424.529 823.111 419.809C853.333 414.734 883.556 434.323 914.667 448.303C944.8 462.818 975.111 471.722 1005.33 486.236C1036.18 500.217 1066.67 519.806 1096.89 519.539C1127.64 519.806 1158.22 500.217 1188.44 486.236C1219.02 471.722 1249.78 462.818 1264.89 457.742L1280 453.023V567H1264.8C1249.51 567 1218.67 567 1188.44 567C1158.13 567 1128 567 1096.89 567C1066.67 567 1036.44 567 1005.33 567C975.2 567 944.889 567 914.667 567C883.822 567 853.333 567 823.111 567C792.356 567 761.778 567 731.556 567C700.978 567 670.222 567 640 567C609.511 567 578.667 567 548.444 567C518.133 567 488 567 456.889 567C426.667 567 396.444 567 365.333 567C335.2 567 304.889 567 274.667 567C243.822 567 213.333 567 183.111 567C152.356 567 121.778 567 91.5556 567C60.9778 567 30.2222 567 15.1111 567H0V424.529Z" fill="#FFF4C0"/>
<path d="M0 434.5L15.2 429.78C30.4889 424.703 61.3333 415.797 91.5556 434.5C121.867 453.203 152 501.297 183.111 524.72C213.333 548.5 243.556 548.5 274.667 553.22C304.8 558.297 335.111 567.203 365.333 558.03C396.178 548.5 426.667 520 456.889 501.03C487.644 481.703 518.222 472.797 548.444 463C579.022 453.203 609.778 444.297 640 434.5C670.489 424.703 701.333 415.797 731.556 434.5C761.867 453.203 792 501.297 823.111 529.53C853.333 558.297 883.556 567.203 914.667 577C944.8 586.797 975.111 595.703 1005.33 595.97C1036.18 595.703 1066.67 586.797 1096.89 553.22C1127.64 520 1158.22 463 1188.44 434.5C1219.02 406 1249.78 406 1264.89 406H1280V634H1264.8C1249.51 634 1218.67 634 1188.44 634C1158.13 634 1128 634 1096.89 634C1066.67 634 1036.44 634 1005.33 634C975.2 634 944.889 634 914.667 634C883.822 634 853.333 634 823.111 634C792.356 634 761.778 634 731.556 634C700.978 634 670.222 634 640 634C609.511 634 578.667 634 548.444 634C518.133 634 488 634 456.889 634C426.667 634 396.444 634 365.333 634C335.2 634 304.889 634 274.667 634C243.822 634 213.333 634 183.111 634C152.356 634 121.778 634 91.5556 634C60.9778 634 30.2222 634 15.1111 634H0V434.5Z" fill="#3178F5"/>
<path d="M0 492H35.5556C71.1111 492 142.222 492 213.333 506.25C284.444 520.5 355.556 549 426.667 549C497.778 549 568.889 520.5 640 506.25C711.111 492 782.222 492 853.333 496.72C924.444 501.797 995.556 510.703 1066.67 539.47C1137.78 567.703 1208.89 615.797 1244.44 639.22L1280 663V720H1244.44C1208.89 720 1137.78 720 1066.67 720C995.556 720 924.444 720 853.333 720C782.222 720 711.111 720 640 720C568.889 720 497.778 720 426.667 720C355.556 720 284.444 720 213.333 720C142.222 720 71.1111 720 35.5556 720H0V492Z" fill="#48E0B1"/>
<path d="M0 720L35.5556 710.464C71.1111 701.284 142.222 681.676 213.333 667.683C284.444 653.156 355.556 644.243 426.667 610.643C497.778 577.399 568.889 520.358 640 501.375C711.111 482.034 782.222 501.642 853.333 506.098C924.444 510.555 995.556 501.642 1066.67 520.358C1137.78 539.075 1208.89 587.203 1244.44 610.643L1280 634.439V720H1244.44C1208.89 720 1137.78 720 1066.67 720C995.556 720 924.444 720 853.333 720C782.222 720 711.111 720 640 720C568.889 720 497.778 720 426.667 720C355.556 720 284.444 720 213.333 720C142.222 720 71.1111 720 35.5556 720H0Z" fill="#212121"/>
</svg>
